# xmcd
#
# Track frame offsets: 
#        150
#        13395
#        28852
#        42604
#        61411
#        81850
#        94764
#        112129
#        128148
#        147245
#        157688
#        173125
#        183429
#        194577
#        213507
#        233037
#        239789
#        246167
#        251720
#
# Disc length: 3443 seconds
#
# Revision: 0
# Processed by: cddbd v1.5.1PL2 Copyright (c) Steve Scherf et al.
# Submitted via: ExactAudioCopy v0.95a3
#
DISCID=1b0d7113
DTITLE=Texas Lightning - Meanwhile Back At The Ranch
DYEAR=2006
DGENRE=Country
TTITLE0=Bad Case Of Lovin' You
TTITLE1=Like A Virgin
TTITLE2=No No Never
TTITLE3=Kiss
TTITLE4=Over The Mountains
TTITLE5=C'est La Vie
TTITLE6=Highway To Hell
TTITLE7=Dancing Queen
TTITLE8=Man In The Mirror
TTITLE9=Norwegian Wood
TTITLE10=Smoke, Smoke, Smoke (That Cigarette)
TTITLE11=Walkin' After Midnight
TTITLE12=Raindrops Keep Falling On My Head
TTITLE13=Walk On The Wild Side
TTITLE14=Blue Bayou
TTITLE15=Bad Case Of Loving You (live)
TTITLE16=Like A Virgin (live)
TTITLE17=Man Of Constant Sorrow (live)
TTITLE18=The Godfather (Love Theme) (live)
EXTD=
EXTT0=
EXTT1=
EXTT2=
EXTT3=
EXTT4=
EXTT5=
EXTT6=
EXTT7=
EXTT8=
EXTT9=
EXTT10=
EXTT11=
EXTT12=
EXTT13=
EXTT14=
EXTT15=
EXTT16=
EXTT17=
EXTT18=
PLAYORDER=
